<svg width="40" height="10" viewBox="0 0 40 10" fill="none" xmlns="http://www.w3.org/2000/svg">
<path fill-rule="evenodd" clip-rule="evenodd" d="M19.878 2.2395L20.197 1.4892L26.2555 1.4815L26.2499 1.7845L26.7615 0.9404L27.5345 1.9173H29.0173L29.2544 2.9204L29.7942 1.9172L31.144 1.9173L31.389 1.4797H34.1977L33.9195 1.9672L38.043 0L36.7968 1.7414L39.1142 0.636301L39.1172 3.0267L37.1603 3.9883L38.6489 4.8003L35.5642 7.2718L34.7587 6.7981L32.0678 5.3953L30.5868 8.1243L29.1822 7.123L28.0141 7.1232L27.7756 6.1481L27.1862 7.1231L23.6556 7.123L22.7444 7.8211L21.283 6.5956L22.0985 5.1482L21.1938 5.4552L20.3288 7.7068L16.6107 9.7882L17.6396 7.3967C17.1148 7.3931 16.6104 7.2753 16.1522 7.0194C15.7145 7.2836 15.2136 7.3968 14.6897 7.3968C14.1548 7.3968 13.6405 7.2787 13.1742 7.0177C13.0728 6.9609 12.9753 6.8983 12.8822 6.8301C12.3167 7.2128 11.6702 7.4065 10.9704 7.3967C10.6833 7.4006 10.4024 7.3718 10.1309 7.3089H7.81132L7.22482 6.5138V7.3089H4.55382V7.1854C4.17172 7.3275 3.76722 7.3935 3.35032 7.3968C2.44502 7.404 1.64512 7.0974 0.987521 6.4829C0.330321 5.8689 -0.0152814 5.0947 0.000518587 4.202C-0.00898141 3.3114 0.336319 2.54 0.988919 1.9243C1.64632 1.3041 2.45642 0.993699 3.35212 1.0119C3.76922 1.0119 4.17282 1.0795 4.55382 1.2224V1.0999H7.17622C7.81762 1.0999 8.42032 1.2692 8.92012 1.6654C9.50902 1.2234 10.1977 0.999199 10.961 1.0118C11.6933 0.999699 12.3573 1.2056 12.9316 1.6106C12.9482 1.596 12.9651 1.5817 12.9822 1.5676C13.4614 1.1724 14.0493 1.0119 14.6674 1.0119C15.2331 1.0119 15.7373 1.1476 16.1527 1.423C16.5923 1.1327 17.1058 1.0119 17.6422 1.0119C18.6163 1.0119 19.4078 1.4139 19.878 2.2395V2.2395Z" fill="#2B2A29"/>
<path d="M16.6678 4.9843C16.8272 5.1933 16.9916 5.3513 17.1609 5.4584C17.3305 5.5657 17.5326 5.6194 17.7672 5.6194C18.1064 5.6194 18.2761 5.4996 18.2761 5.2601C18.2761 5.1553 18.2436 5.0755 18.1788 5.0206C18.1139 4.9657 17.9792 4.8934 17.7746 4.8035L17.4388 4.6554H18.8664L19.3999 4.9165L18.6674 6.5758C18.4188 6.6762 18.0812 6.7495 17.7672 6.7495C17.328 6.7495 16.9351 6.6509 16.5883 6.4538C16.486 6.3957 16.3909 6.331 16.3031 6.2601C16.5609 5.9714 16.6819 5.6151 16.6819 5.2077C16.6819 5.1318 16.6772 5.0573 16.6678 4.9843V4.9843ZM17.0284 4.4645C16.8395 4.3649 16.6772 4.2577 16.5411 4.1421H19.0083C19.097 4.2114 19.1499 4.2588 19.1475 4.2569C19.1449 4.2549 18.7522 4.404 18.5931 4.4645H17.0284V4.4645ZM16.3681 3.9754C16.3209 3.923 16.2781 3.8694 16.2404 3.8141H18.5124C18.6079 3.8657 18.6977 3.9221 18.7783 3.9754H16.3681V3.9754ZM0.656619 4.1898L0.656419 4.1421H1.97452L1.97382 4.1973C1.97382 4.2902 1.98042 4.3792 1.99362 4.4645H0.66502C0.65722 4.375 0.653319 4.2835 0.656619 4.1898V4.1898ZM0.662119 3.9754C0.665719 3.921 0.670817 3.8672 0.677817 3.8141H2.01482C2.00282 3.8662 1.99342 3.9198 1.98682 3.9754H0.662119ZM2.03602 4.6554C2.09632 4.86 2.20052 5.038 2.34812 5.1928C2.60752 5.4422 2.93182 5.5669 3.32102 5.5669C3.85992 5.5669 4.28902 5.2975 4.60832 4.7586L5.58882 5.4248C5.36432 5.8438 5.05492 6.1694 4.66072 6.4015C4.26652 6.6335 3.82002 6.7495 3.32102 6.7495C2.59262 6.7595 1.96272 6.5125 1.43122 6.0085C1.02012 5.6187 0.772618 5.1677 0.688518 4.6554H2.03602V4.6554ZM6.52482 3.8141V3.9754H5.23752V3.8141H6.52482ZM7.38712 3.9754C7.47532 3.9493 7.55072 3.9048 7.61382 3.8418C7.62282 3.8328 7.63132 3.8236 7.63952 3.8141H9.04482C9.03312 3.8694 9.01882 3.9232 9.00192 3.9754H7.38712V3.9754ZM9.60842 6.6597H8.17142L7.05622 5.1254H6.52482V6.6597H5.23752V6.127C5.42352 5.9418 5.58012 5.7282 5.70832 5.4888L5.76592 5.3812L5.23752 5.0222V4.6554H8.54202C8.47062 4.716 8.39262 4.7724 8.30612 4.826L9.60842 6.6597V6.6597ZM5.23752 4.4645V4.1421H8.93672C8.88312 4.2578 8.81482 4.3655 8.73202 4.4645H5.23752V4.4645ZM12.3384 4.1898L12.3378 4.1421H13.656C13.6563 4.1581 13.6563 4.1742 13.6555 4.1898C13.6575 4.2832 13.6546 4.3747 13.647 4.4645H12.3174C12.3315 4.3773 12.3384 4.2863 12.3384 4.1898ZM12.3254 3.9754C12.3185 3.92 12.309 3.8663 12.2965 3.8141H13.6361L13.6329 3.7904C13.6412 3.8513 13.6473 3.9128 13.6513 3.9754H12.3254ZM9.68382 3.8141C9.67202 3.8662 9.66282 3.92 9.65622 3.9754H9.14382C9.15992 3.9233 9.17312 3.8695 9.18322 3.8141H9.68382ZM9.64452 4.1421L9.64392 4.1898C9.64392 4.2855 9.65072 4.377 9.66442 4.4645H8.90392C8.97702 4.364 9.03732 4.256 9.08482 4.1421H9.64452ZM9.70692 4.6554C9.76762 4.8607 9.87162 5.039 10.0182 5.1928C10.2676 5.4422 10.592 5.5669 10.9911 5.5669C11.3803 5.5669 11.7021 5.4397 11.9566 5.1852C12.1064 5.0354 12.2122 4.8588 12.2738 4.6554H13.6232C13.5385 5.1677 13.2881 5.6185 12.8734 6.0085C12.3371 6.5125 11.7071 6.7595 10.9837 6.7495C10.4625 6.7566 9.99242 6.6321 9.57342 6.3763L8.49772 4.8616C8.58732 4.7978 8.66852 4.729 8.74132 4.6554H9.70692V4.6554ZM13.671 5.0297C13.8194 5.2164 13.972 5.3592 14.1289 5.4584C14.2985 5.5657 14.5006 5.6194 14.7351 5.6194C15.0744 5.6194 15.244 5.4996 15.244 5.2601C15.244 5.1553 15.2116 5.0755 15.1467 5.0206C15.0818 4.9657 14.9471 4.8934 14.7426 4.8035L14.4068 4.6554H16.4402C16.511 4.8199 16.5463 5.0043 16.5463 5.2077C16.5463 5.6767 16.3754 6.051 16.0336 6.3304C15.6918 6.6098 15.259 6.7495 14.7351 6.7495C14.296 6.7495 13.9031 6.6509 13.5563 6.4538C13.3555 6.3397 13.1828 6.201 13.0381 6.0376C13.3355 5.7398 13.5488 5.4037 13.671 5.0297V5.0297ZM13.9962 4.4645C13.9237 4.426 13.855 4.3867 13.79 4.3462C13.7918 4.2942 13.7923 4.2416 13.7911 4.1884L13.7916 4.1421H16.0309C16.1119 4.2069 16.1818 4.2742 16.2432 4.3432C16.277 4.3821 16.3081 4.4225 16.3362 4.4645H13.9962V4.4645ZM13.7874 3.9754C13.7843 3.921 13.7794 3.8671 13.773 3.8141H15.4942C15.6023 3.8659 15.7017 3.9193 15.7916 3.9754H13.7874V3.9754Z" fill="#6A52CC"/>
<path fill-rule="evenodd" clip-rule="evenodd" d="M34.031 3.8784L34.2001 3.9733H35.9045L35.8388 3.9369L36.0642 3.8245H34.1424L38.6096 1.6624L34.031 3.8784ZM34.4742 4.1271L35.0046 4.4248H36.7201L36.1824 4.1271H34.4742ZM35.3184 4.6009L36.0349 5.003L35.7375 5.2279L35.1178 4.8801L35.2006 6.1868L35.6749 6.4699L37.5945 4.9089L37.0382 4.6009H35.3184V4.6009ZM31.9303 4.4613L34.8601 6.0113L34.7642 4.6885L34.6094 4.6009H32.1942L31.9303 4.4613V4.4613ZM34.2982 4.4248L33.7721 4.1271H30.8351L30.6421 4.4769L30.6709 4.4248H34.2982V4.4248ZM33.5003 3.9733L33.3036 3.862L33.3796 3.8245H31.0021L30.92 3.9733H33.5003ZM30.5737 4.6009L29.5425 6.4699L30.4897 7.1552L31.9303 4.4613L31.8556 4.6009H30.5737V4.6009ZM31.3797 2.5546L30.6116 3.9733H29.6004L30.3526 2.5545L29.6793 3.8245H30.6921L31.3797 2.5546ZM30.5283 4.1271L30.3671 4.4248H29.361L29.5188 4.1271H30.5283ZM30.2718 4.6009L29.2598 6.4699L28.6918 6.47L28.2414 4.6009H29.0708L29.1309 4.8588L29.2676 4.6009H30.2718V4.6009ZM28.199 4.4248L28.1785 4.3399L28.1279 4.4248H26.8502L27.0149 4.1271H28.9604L29.0298 4.4248H28.199V4.4248ZM28.023 4.6009L26.9098 6.47L25.7192 6.4699L26.7528 4.6009H28.023V4.6009ZM27.0999 3.9733L27.1822 3.8245H28.8899L28.5941 2.5546L28.9246 3.9733H27.0999ZM26.9079 3.8245L26.8238 3.9733H25.8346L25.8327 3.9764L25.9234 3.8245H26.9079ZM26.7368 4.1271L26.5685 4.4248H25.178L25.8327 3.9764L25.6127 4.1271H26.7368ZM26.469 4.6009L25.4123 6.4699H24.3458L25.0716 5.2597L22.8587 6.9805L22.2588 6.4699L23.2964 4.6009H24.2739L23.77 5.3891L24.9209 4.6009H26.469V4.6009ZM23.3942 4.4248L23.5485 4.1469L23.6032 4.1271H24.5768L24.3865 4.4248H23.3942V4.4248ZM24.0277 3.9733L24.4385 3.8245H24.7703L24.8703 3.6681L24.6752 3.9733H24.0277ZM19.068 4.4248L19.8835 4.1654L19.8995 4.1271H23.0195L23.466 3.9733H19.964L20.0263 3.8245H23.898L25.638 3.2252L22.1552 4.4248H19.068ZM20.7503 4.8691L19.8432 7.2821L18.1188 8.2618L19.5667 4.8462L18.8464 4.4953L19.0632 4.6009H21.6439L20.7503 4.8691V4.8691Z" fill="#BD537F"/>
<path d="M17.4388 4.6554L17.2656 4.579C17.1824 4.5421 17.1033 4.504 17.0284 4.4645H18.5931L18.5274 4.4895L18.8664 4.6554H17.4388V4.6554ZM16.5411 4.1421C16.4777 4.0883 16.42 4.0328 16.3681 3.9754H18.7783C18.8684 4.0358 18.947 4.0943 19.0083 4.1421H16.5411ZM16.2404 3.8141C16.0914 3.5966 16.0166 3.3563 16.0158 3.0935L16.5752 2.6654L16.5256 2.5653C16.4624 2.4382 16.3915 2.3231 16.3131 2.2197C16.3674 2.1541 16.4293 2.0923 16.4985 2.0343C16.8203 1.7649 17.2357 1.6302 17.7446 1.6302C18.543 1.6302 19.1068 1.962 19.4362 2.6256L18.5755 3.2842C18.4507 3.0996 18.326 2.9662 18.2012 2.8838C18.0765 2.8015 17.9293 2.7603 17.7596 2.7603C17.4652 2.7603 17.3181 2.8651 17.3181 3.0747C17.3181 3.1645 17.3492 3.238 17.4116 3.2955C17.474 3.3528 17.585 3.414 17.7446 3.4788L18.3135 3.7183C18.3812 3.7468 18.448 3.7793 18.5124 3.8141H16.2404V3.8141ZM0.656418 4.1421C0.656618 4.0859 0.658519 4.0303 0.662119 3.9754H1.98682C1.98022 4.0294 1.97602 4.0849 1.97452 4.1421H0.656418ZM0.677817 3.8141C0.749617 3.2642 1.00212 2.7819 1.43502 2.3674C1.96392 1.861 2.59502 1.6152 3.32852 1.6302C3.82252 1.6302 4.26652 1.7462 4.66072 1.9782C5.05492 2.2102 5.36432 2.5358 5.58882 2.9549L4.60832 3.621C4.28902 3.0822 3.85992 2.8127 3.32102 2.8127C2.92682 2.8127 2.60382 2.9399 2.35182 3.1944C2.18282 3.3651 2.07052 3.5717 2.01482 3.8141H0.677817V3.8141ZM1.99362 4.4645C2.00382 4.5304 2.01792 4.594 2.03602 4.6554H0.688517C0.678217 4.5927 0.670419 4.5291 0.665019 4.4645H1.99362ZM6.52482 2.8426V3.8141H5.23752V3.3575L5.76592 2.9985L5.70832 2.8909C5.58012 2.6515 5.42352 2.438 5.23752 2.2528V1.72H7.17592C7.72982 1.72 8.18632 1.8759 8.54552 2.1878C8.90482 2.4996 9.08442 2.91 9.08442 3.4189C9.08442 3.5582 9.07112 3.6899 9.04482 3.8141H7.63952C7.72952 3.7107 7.77472 3.579 7.77472 3.4189C7.77472 3.2443 7.72102 3.1046 7.61382 2.9998C7.50642 2.8951 7.36312 2.8426 7.18342 2.8426H6.52482V2.8426ZM6.52482 3.9754V4.0028H7.18342C7.25752 4.0028 7.32542 3.9937 7.38712 3.9754H9.00192C8.98332 4.0328 8.96162 4.0884 8.93672 4.1421H5.23752V3.9754H6.52482ZM5.23752 4.6554V4.4645H8.73202C8.67542 4.5321 8.61222 4.5957 8.54202 4.6554H5.23752ZM12.3378 4.1421C12.3363 4.085 12.3321 4.0294 12.3254 3.9754H13.6513C13.6547 4.0303 13.6561 4.0859 13.656 4.1421H12.3378ZM12.2965 3.8141C12.2396 3.5757 12.1251 3.3704 11.9528 3.1982C11.6959 2.9412 11.3753 2.8127 10.9911 2.8127C10.592 2.8127 10.2676 2.9399 10.0182 3.1944C9.85012 3.3659 9.73862 3.5724 9.68382 3.8141H9.18322C9.20782 3.6889 9.22002 3.5571 9.22002 3.4189C9.22002 3.077 9.14342 2.7658 8.98032 2.4939C9.01902 2.4524 9.05932 2.4114 9.10142 2.3712C9.63282 1.8622 10.2602 1.6152 10.9837 1.6302C11.7071 1.6152 12.3371 1.8622 12.8734 2.3712C13.3118 2.7872 13.5661 3.2681 13.6361 3.8141H12.2965V3.8141ZM9.65622 3.9754C9.64982 4.0294 9.64592 4.0849 9.64452 4.1421H9.08482C9.10732 4.0881 9.12692 4.0325 9.14382 3.9754H9.65622ZM9.66442 4.4645C9.67472 4.5304 9.68882 4.5941 9.70692 4.6554H8.74132C8.80112 4.595 8.85542 4.5314 8.90392 4.4645H9.66442V4.4645ZM12.2738 4.6554C12.2924 4.5942 12.3068 4.5305 12.3174 4.4645H13.647C13.6416 4.5291 13.6336 4.5927 13.6232 4.6554H12.2738ZM14.4068 4.6554L14.2336 4.579C14.1503 4.5421 14.0712 4.504 13.9962 4.4645H16.3362C16.3767 4.5249 16.4114 4.5885 16.4402 4.6554H14.4068V4.6554ZM13.7916 4.1421C13.7919 4.0858 13.7906 4.0303 13.7874 3.9754H15.7916C15.8795 4.0293 15.9593 4.0849 16.0309 4.1421H13.7916ZM13.773 3.8141C13.7102 3.2952 13.4903 2.8379 13.1327 2.4426C13.2122 2.2902 13.3234 2.1541 13.4665 2.0343C13.7883 1.7649 14.2037 1.6302 14.7126 1.6302C15.5109 1.6302 16.0748 1.962 16.4041 2.6256L15.5434 3.2842C15.4187 3.0996 15.2939 2.9662 15.1692 2.8838C15.0444 2.8015 14.8972 2.7603 14.7276 2.7603C14.4332 2.7603 14.286 2.8651 14.286 3.0747C14.286 3.1645 14.3172 3.238 14.3796 3.2955C14.442 3.3528 14.5529 3.414 14.7126 3.4788L15.2814 3.7183C15.3557 3.7496 15.4267 3.7815 15.4942 3.8141H13.773V3.8141Z" fill="#9A6AF2"/>
<path fill-rule="evenodd" clip-rule="evenodd" d="M21.645 3.0119L21.3238 3.7073L23.6986 2.9814L21.645 3.0119ZM34.2001 3.9733L34.4742 4.1271H36.1824L35.9045 3.9733H34.2001ZM35.0046 4.4248L35.3184 4.6009H37.0382L36.7201 4.4248H35.0046V4.4248ZM36.0642 3.8245L38.6107 2.5545L38.6096 1.6624L34.1424 3.8245H36.0642ZM31.9303 4.4613L32.1942 4.6009H34.6094L34.2982 4.4248H30.6709L30.5737 4.6009H31.8556L31.9303 4.4613V4.4613ZM33.7721 4.1271L33.5003 3.9733H30.92L30.8351 4.1271H33.7721ZM33.3796 3.8245L35.2585 2.8971L36.0973 1.7075L32.377 3.5088L33.165 2.1078H31.9493L31.0021 3.8245H33.3796V3.8245ZM30.3526 2.5545L31.3797 2.5546L30.6921 3.8245H29.6793L30.3526 2.5545ZM30.6116 3.9733L30.5283 4.1271H29.5188L29.6004 3.9733H30.6116ZM30.3671 4.4248L30.2718 4.6009H29.2676L29.361 4.4248H30.3671ZM28.2414 4.6009L28.199 4.4248H29.0298L29.0708 4.6009H28.2414V4.6009ZM28.1279 4.4248L28.023 4.6009H26.7528L26.8502 4.4248H28.1279ZM27.0149 4.1271L27.0999 3.9733H28.9246L28.9604 4.1271H27.0149ZM27.1822 3.8245L27.8845 2.5546H28.5941L28.8899 3.8245H27.1822V3.8245ZM26.957 2.0939L27.4957 2.7848L26.9079 3.8245H25.9234L26.957 2.0939ZM26.8238 3.9733L26.7368 4.1271H25.6127L25.8327 3.9764L25.8346 3.9733H26.8238ZM26.5685 4.4248L26.469 4.6009H24.9209L25.178 4.4248H26.5685ZM23.2964 4.6009L23.3942 4.4248H24.3865L24.2739 4.6009H23.2964V4.6009ZM23.6032 4.1271L24.0277 3.9733H24.6752L24.5768 4.1271H23.6032ZM24.4385 3.8245L24.8703 3.6681L24.7703 3.8245H24.4385ZM19.0632 4.6009L18.8464 4.4953L19.068 4.4248H22.1552L21.6439 4.6009H19.0632ZM19.8995 4.1271L19.964 3.9733H23.466L23.0195 4.1271H19.8995ZM20.0263 3.8245L20.7418 2.1169L25.6583 2.1105L25.638 3.2252L23.898 3.8245H20.0263Z" fill="#F382B1"/>
</svg>
