<svg width="30" height="30" viewBox="0 0 30 30" fill="none" xmlns="http://www.w3.org/2000/svg">
<path d="M15 0C6.71652 0 0 6.71652 0 15C0 23.2835 6.71652 30 15 30C23.2835 30 30 23.2835 30 15C30 6.71652 23.2835 0 15 0ZM23.5714 8.49442L22.2054 9.80357C22.0848 9.89397 22.0279 10.0413 22.0513 10.1853V19.8181C22.0279 19.9654 22.0848 20.1127 22.2054 20.1998L23.5446 21.5089V21.8002H16.8214V21.5223L18.2042 20.1797C18.3415 20.0424 18.3415 20.0022 18.3415 19.798V12.0033L14.4911 21.7667H13.9721L9.49219 12.0033V18.5491C9.45201 18.8237 9.54911 19.1016 9.7433 19.2991L11.5446 21.4788V21.7701H6.42857V21.4788L8.22991 19.2991C8.32482 19.2011 8.39545 19.0822 8.43615 18.9519C8.47685 18.8217 8.48648 18.6837 8.46428 18.5491V10.9821C8.48772 10.7712 8.40736 10.567 8.24665 10.423L6.6462 8.49442V8.20312H11.6183L15.4554 16.6239L18.8337 8.20982H23.5714V8.49442Z" fill="black"/>
</svg>
